<svg width="64" height="64" viewBox="0 0 64 64" fill="none" xmlns="http://www.w3.org/2000/svg">
<path fill-rule="evenodd" clip-rule="evenodd" d="M32.0625 0.000244141C38.3826 0.0323691 44.3429 2.50249 48.8585 6.96387C53.4235 11.474 55.9375 17.4576 55.9375 23.8125C55.9375 28.3336 54.113 32.9137 50.3597 37.8142C47.3227 41.7796 43.5474 45.2582 40.5136 48.0535L40.5122 48.0547L40.5103 48.0565C38.6658 49.7561 36.1663 52.0591 35.6875 52.9765V55.25H28.3125V52.9359C27.8681 52.0055 25.2894 49.6666 23.3909 47.9447C20.3669 45.202 16.6036 41.7887 13.588 37.8591C9.86987 33.0141 8.0625 28.4194 8.0625 23.8125C8.0625 17.4576 10.5765 11.474 15.1415 6.96374C19.6571 2.50249 25.6174 0.0323691 31.9375 0.000244141H32.0625ZM13.0625 23.8125C13.0625 31.8269 20.9735 39.002 26.75 44.2411C27.209 44.6574 27.6474 45.0551 28.0644 45.4369C27.3657 43.3955 26.4917 41.2654 25.5959 39.0822L25.5944 39.0785C23.3664 33.6484 21.0625 28.0337 21.0625 22.625C21.0625 17.1677 22.0866 12.5679 24.1938 8.56262C24.662 7.67262 25.1611 6.85387 25.6811 6.09187C18.334 8.69362 13.0625 15.655 13.0625 23.8125ZM33.6607 37.7131L33.6618 37.7104L33.6626 37.7082C35.7643 32.5124 37.9375 27.14 37.9375 22.625C37.9375 13.9172 34.9016 9.33412 32 6.15749C29.0984 9.33412 26.0625 13.9172 26.0625 22.625C26.0625 27.0482 28.1764 32.1997 30.2208 37.1817L30.2269 37.1966C30.8477 38.71 31.4748 40.2384 32.0515 41.7676C32.5585 40.4375 33.1057 39.085 33.6607 37.7131ZM37.1241 44.3776C40.0165 41.7129 43.616 38.3964 46.3901 34.7741C49.4501 30.7789 50.9375 27.1932 50.9375 23.8125C50.9375 15.655 45.666 8.69362 38.3189 6.09187C38.8389 6.85387 39.338 7.67262 39.8063 8.56262C41.9134 12.5679 42.9375 17.1677 42.9375 22.625C42.9375 28.1136 40.5783 33.9453 38.2966 39.5852L38.2941 39.5914C37.4914 41.5761 36.7067 43.5162 36.0569 45.3629C36.3861 45.0577 36.7283 44.7424 37.0832 44.4154L37.1241 44.3776Z" fill="white"/>
<path d="M28.3125 64V59H35.8125V64H28.3125Z" fill="white"/>
</svg>
