<svg width="235" height="65" viewBox="0 0 235 65" fill="none" xmlns="http://www.w3.org/2000/svg">
<path d="M0 61.3329V50.2887H5.39441V51.1856H0.986702V55.349H5.23861V56.2459H0.986702V60.436H5.39441V61.3329H0Z" fill="white"/>
<path d="M7.92861 61.3329V49.8202H8.87636V61.3329H7.92861Z" fill="white"/>
<path d="M14.7847 61.5471C14.088 61.5471 13.4648 61.3887 12.9152 61.0718C12.3699 60.755 11.9415 60.3244 11.6299 59.78C11.3183 59.2311 11.1625 58.6154 11.1625 57.9326C11.1625 57.4195 11.2512 56.942 11.4286 56.5002C11.6104 56.054 11.8614 55.6635 12.1816 55.3289C12.5019 54.9942 12.8741 54.7332 13.2982 54.5457C13.7223 54.3583 14.1745 54.2646 14.6549 54.2646C15.3127 54.2646 15.8969 54.4141 16.4076 54.7131C16.9226 55.0076 17.3294 55.4159 17.628 55.938C17.9309 56.4601 18.091 57.0625 18.1083 57.7452C18.1083 57.7988 18.1062 57.8434 18.1018 57.8791C18.1018 57.9103 18.0975 57.9505 18.0889 57.9996H12.1037C12.1037 58.535 12.2206 59.008 12.4543 59.4186C12.688 59.8291 13.0082 60.1526 13.415 60.3891C13.8261 60.6212 14.2957 60.7372 14.8237 60.7372C15.3257 60.7372 15.7757 60.6301 16.1739 60.4159C16.5764 60.1972 16.9117 59.8849 17.1801 59.4788L17.8811 59.867C17.5652 60.398 17.1346 60.8108 16.5893 61.1053C16.0484 61.3998 15.4468 61.5471 14.7847 61.5471ZM12.1557 57.2633H17.1606C17.1043 56.8349 16.9594 56.4578 16.7257 56.1321C16.492 55.8019 16.1955 55.5431 15.8363 55.3556C15.4815 55.1682 15.092 55.0745 14.6679 55.0745C14.2308 55.0745 13.8326 55.1682 13.4734 55.3556C13.1142 55.5386 12.8178 55.7952 12.5841 56.1254C12.3547 56.4511 12.2119 56.8304 12.1557 57.2633Z" fill="white"/>
<path d="M20.3156 61.3329V54.4788H21.2634V55.4159C21.5274 55.0366 21.8433 54.751 22.2111 54.5591C22.579 54.3628 22.9901 54.2646 23.4445 54.2646C23.9898 54.2646 24.4637 54.394 24.8662 54.6528C25.273 54.9116 25.5542 55.2642 25.71 55.7104C25.9654 55.2731 26.2899 54.9228 26.6838 54.6595C27.0819 54.3963 27.5536 54.2646 28.0989 54.2646C28.5706 54.2646 28.9904 54.365 29.3582 54.5658C29.7261 54.7622 30.0139 55.0522 30.2216 55.436C30.4337 55.8153 30.5397 56.2793 30.5397 56.8282V61.3329H29.5919V57.1026C29.5919 56.4779 29.434 55.9826 29.1181 55.6167C28.8021 55.2508 28.3802 55.0678 27.8522 55.0678C27.4887 55.0678 27.1598 55.1504 26.8655 55.3155C26.5712 55.4806 26.3376 55.6948 26.1644 55.9581C25.9913 56.2169 25.9048 56.4846 25.9048 56.7613V61.3329H24.957V57.0022C24.957 56.4087 24.7991 55.938 24.4832 55.5899C24.1716 55.2419 23.7583 55.0678 23.2433 55.0678C22.8798 55.0678 22.5465 55.1481 22.2436 55.3088C21.945 55.465 21.707 55.668 21.5295 55.9179C21.3521 56.1678 21.2634 56.4244 21.2634 56.6876V61.3329H20.3156Z" fill="white"/>
<path d="M36.3384 61.5471C35.6416 61.5471 35.0185 61.3887 34.4689 61.0718C33.9236 60.755 33.4951 60.3244 33.1835 59.78C32.872 59.2311 32.7162 58.6154 32.7162 57.9326C32.7162 57.4195 32.8049 56.942 32.9823 56.5002C33.1641 56.054 33.4151 55.6635 33.7353 55.3289C34.0556 54.9942 34.4277 54.7332 34.8518 54.5457C35.276 54.3583 35.7282 54.2646 36.2086 54.2646C36.8664 54.2646 37.4506 54.4141 37.9613 54.7131C38.4762 55.0076 38.883 55.4159 39.1817 55.938C39.4846 56.4601 39.6447 57.0625 39.662 57.7452C39.662 57.7988 39.6599 57.8434 39.6555 57.8791C39.6555 57.9103 39.6512 57.9505 39.6425 57.9996H33.6574C33.6574 58.535 33.7743 59.008 34.008 59.4186C34.2417 59.8291 34.5619 60.1526 34.9687 60.3891C35.3798 60.6212 35.8494 60.7372 36.3773 60.7372C36.8793 60.7372 37.3294 60.6301 37.7276 60.4159C38.13 60.1972 38.4654 59.8849 38.7337 59.4788L39.4348 59.867C39.1189 60.398 38.6883 60.8108 38.143 61.1053C37.6021 61.3998 37.0005 61.5471 36.3384 61.5471ZM33.7094 57.2633H38.7143C38.658 56.8349 38.513 56.4578 38.2793 56.1321C38.0457 55.8019 37.7492 55.5431 37.39 55.3556C37.0351 55.1682 36.6457 55.0745 36.2215 55.0745C35.7845 55.0745 35.3863 55.1682 35.0271 55.3556C34.6679 55.5386 34.3715 55.7952 34.1378 56.1254C33.9084 56.4511 33.7656 56.8304 33.7094 57.2633Z" fill="white"/>
<path d="M41.8693 61.3329V54.4788H42.8171V55.4159C42.9988 55.0946 43.2801 54.8224 43.661 54.5993C44.0418 54.3762 44.507 54.2646 45.0566 54.2646C45.5716 54.2646 46.0152 54.3739 46.3874 54.5926C46.7596 54.8112 47.0452 55.1303 47.2443 55.5498C47.4433 55.9647 47.5429 56.4668 47.5429 57.0558V61.3329H46.5951V57.2432C46.5951 56.5337 46.435 55.9938 46.1147 55.6234C45.7945 55.2485 45.3423 55.0611 44.758 55.0611C44.3512 55.0611 44.0028 55.1459 43.7129 55.3155C43.4273 55.4806 43.2066 55.7015 43.0508 55.9781C42.895 56.2503 42.8171 56.5471 42.8171 56.8684V61.3329H41.8693Z" fill="white"/>
<path d="M51.7911 61.5471C51.2934 61.5471 50.9061 61.3753 50.6291 61.0317C50.3565 60.6836 50.2202 60.195 50.2202 59.5658V55.2151H49.5451V54.4788H50.2202V51.9152H51.1679V54.4788H52.8233V55.2151H51.1679V59.5123C51.1679 59.8916 51.2393 60.1816 51.3822 60.3824C51.525 60.5832 51.7284 60.6836 51.9924 60.6836C52.2477 60.6836 52.4727 60.61 52.6675 60.4627L52.9076 61.2392C52.7605 61.3329 52.5874 61.4065 52.3883 61.4601C52.1893 61.5181 51.9902 61.5471 51.7911 61.5471Z" fill="white"/>
<path d="M57.7904 61.5471C57.1673 61.5471 56.6047 61.3909 56.1027 61.0785C55.605 60.7617 55.209 60.3289 54.9147 59.78C54.6248 59.2311 54.4798 58.6042 54.4798 57.8992C54.4798 57.203 54.6226 56.5828 54.9082 56.0384C55.1982 55.4895 55.592 55.0567 56.0897 54.7398C56.5917 54.423 57.1586 54.2646 57.7904 54.2646C58.392 54.2646 58.9373 54.4096 59.4263 54.6997C59.9153 54.9897 60.2875 55.3913 60.5428 55.9045V54.4788H61.4906V61.3329H60.5428V59.8871C60.2572 60.4047 59.8742 60.8108 59.3938 61.1053C58.9135 61.3998 58.379 61.5471 57.7904 61.5471ZM58.0241 60.697C58.5218 60.697 58.9611 60.5788 59.3419 60.3423C59.7271 60.1013 60.03 59.7711 60.2507 59.3516C60.4714 58.9277 60.5818 58.4458 60.5818 57.9058C60.5818 57.3614 60.4714 56.8795 60.2507 56.4601C60.0343 56.0406 59.7336 55.7126 59.3484 55.4761C58.9632 55.2352 58.5218 55.1147 58.0241 55.1147C57.5265 55.1147 57.085 55.2352 56.6999 55.4761C56.3147 55.7126 56.0118 56.0406 55.7911 56.4601C55.5704 56.8795 55.46 57.3614 55.46 57.9058C55.46 58.4458 55.5704 58.9277 55.7911 59.3516C56.0118 59.7711 56.3147 60.1013 56.6999 60.3423C57.085 60.5788 57.5265 60.697 58.0241 60.697Z" fill="white"/>
<path d="M64.2852 61.3329V54.4788H65.2329V55.4895C65.445 55.0879 65.7176 54.7845 66.0508 54.5792C66.3884 54.3695 66.7779 54.2646 67.2193 54.2646C67.414 54.2646 67.6109 54.2869 67.81 54.3315C68.0134 54.3762 68.1887 54.4342 68.3358 54.5056L67.9463 55.3289C67.8165 55.2619 67.6672 55.2106 67.4984 55.1749C67.334 55.1392 67.176 55.1214 67.0246 55.1214C66.7173 55.1214 66.4273 55.2017 66.1547 55.3623C65.8821 55.523 65.6592 55.7327 65.4861 55.9915C65.3173 56.2459 65.2329 56.5181 65.2329 56.8081V61.3329H64.2852Z" fill="white"/>
<path d="M70.6181 64.8135L72.2539 61.1656L69.0926 54.4788H70.1637L72.7927 60.1615L75.1816 54.4788H76.2527L71.6892 64.8135H70.6181Z" fill="white"/>
<path d="M84.1854 61.5471C83.6315 61.5471 83.1446 61.4623 82.7249 61.2927C82.3051 61.1187 81.948 60.9112 81.6538 60.6702C81.3638 60.4248 81.1301 60.1861 80.9527 59.954C80.7796 59.722 80.6584 59.548 80.5892 59.432L81.1539 58.6823C81.2318 58.8072 81.3487 58.9768 81.5045 59.191C81.6646 59.4007 81.868 59.6149 82.1147 59.8336C82.3613 60.0477 82.6578 60.2307 83.004 60.3824C83.3502 60.5297 83.7505 60.6033 84.2049 60.6033C84.6377 60.6033 85.0315 60.523 85.3864 60.3623C85.7456 60.2017 86.0333 59.963 86.2497 59.6461C86.4661 59.3293 86.5743 58.9366 86.5743 58.4681C86.5743 58.0754 86.4986 57.743 86.3471 57.4708C86.2 57.1941 85.9944 56.9598 85.7304 56.768C85.4664 56.5761 85.1635 56.4065 84.8216 56.2593C84.484 56.1075 84.1292 55.9603 83.757 55.8175C83.4973 55.7149 83.2247 55.5944 82.9391 55.456C82.6578 55.3133 82.3938 55.137 82.1471 54.9273C81.9004 54.7131 81.6992 54.4543 81.5434 54.1508C81.392 53.8474 81.3162 53.4815 81.3162 53.0531C81.3162 52.6515 81.3898 52.2722 81.5369 51.9152C81.6841 51.5582 81.8896 51.2436 82.1536 50.9714C82.4176 50.6948 82.7335 50.4784 83.1014 50.3222C83.4692 50.166 83.876 50.0879 84.3218 50.0879C84.7502 50.0879 85.144 50.1615 85.5032 50.3088C85.8624 50.4516 86.1762 50.6345 86.4445 50.8577C86.7171 51.0763 86.927 51.3039 87.0741 51.5404L86.5678 52.2432C86.4466 52.0379 86.2779 51.8416 86.0615 51.6542C85.8451 51.4668 85.5898 51.315 85.2955 51.199C85.0055 51.0785 84.6831 51.0183 84.3283 51.0183C83.8868 51.0183 83.5103 51.1165 83.1987 51.3128C82.8915 51.5091 82.6578 51.7635 82.4977 52.0759C82.3375 52.3838 82.2575 52.7095 82.2575 53.0531C82.2575 53.3655 82.3202 53.631 82.4457 53.8496C82.5712 54.0683 82.7378 54.2535 82.9456 54.4052C83.1533 54.5524 83.3805 54.6796 83.6272 54.7867C83.8782 54.8938 84.1292 54.9942 84.3802 55.0879C84.8 55.2485 85.2024 55.4203 85.5876 55.6033C85.9771 55.7818 86.3233 55.996 86.6262 56.2459C86.9292 56.4913 87.1693 56.7925 87.3468 57.1495C87.5242 57.502 87.6129 57.9304 87.6129 58.4346C87.6129 59.095 87.4615 59.6573 87.1585 60.1214C86.8556 60.5855 86.4466 60.9402 85.9316 61.1856C85.4167 61.4266 84.8346 61.5471 84.1854 61.5471Z" fill="white"/>
<path d="M93.1254 61.5471C92.6277 61.5471 92.1603 61.4578 91.7232 61.2793C91.2861 61.0964 90.9032 60.8398 90.5743 60.5096C90.2454 60.1794 89.9879 59.7934 89.8018 59.3516C89.6157 58.9099 89.5226 58.4279 89.5226 57.9058C89.5226 57.3882 89.6135 56.9085 89.7953 56.4668C89.977 56.025 90.2302 55.639 90.5548 55.3088C90.8837 54.9786 91.2667 54.722 91.7038 54.539C92.1409 54.3561 92.6147 54.2646 93.1254 54.2646C93.5625 54.2646 93.9779 54.3315 94.3718 54.4654C94.7656 54.5993 95.1053 54.7845 95.3909 55.021L95.0014 55.6769C94.5167 55.2887 93.9282 55.0946 93.2358 55.0946C92.6905 55.0946 92.2101 55.2195 91.7946 55.4694C91.3835 55.7149 91.0633 56.0518 90.8339 56.4801C90.6046 56.9041 90.4899 57.3793 90.4899 57.9058C90.4899 58.4369 90.6067 58.9166 90.8404 59.3449C91.0741 59.7689 91.3987 60.1035 91.8141 60.349C92.2296 60.5944 92.7056 60.7171 93.2422 60.7171C93.5798 60.7171 93.8979 60.668 94.1965 60.5698C94.4994 60.4672 94.7656 60.3222 94.9949 60.1348L95.3909 60.7907C95.101 61.0228 94.7612 61.2057 94.3718 61.3396C93.9823 61.4779 93.5668 61.5471 93.1254 61.5471Z" fill="white"/>
<path d="M97.4525 61.3329V49.8135H98.4002V55.4159C98.582 55.0946 98.8633 54.8224 99.2441 54.5993C99.6249 54.3762 100.09 54.2646 100.64 54.2646C101.155 54.2646 101.598 54.3739 101.971 54.5926C102.343 54.8112 102.628 55.1303 102.827 55.5498C103.026 55.9647 103.126 56.4668 103.126 57.0558V61.3329H102.178V57.2432C102.178 56.5337 102.018 55.9915 101.698 55.6167C101.378 55.2419 100.925 55.0544 100.341 55.0544C99.9344 55.0544 99.586 55.1392 99.296 55.3088C99.0104 55.4784 98.7897 55.7015 98.6339 55.9781C98.4781 56.2503 98.4002 56.5471 98.4002 56.8684V61.3329H97.4525Z" fill="white"/>
<path d="M108.969 61.5471C108.277 61.5471 107.652 61.3931 107.093 61.0852C106.539 60.7773 106.1 60.349 105.776 59.8001C105.451 59.2512 105.289 58.6198 105.289 57.9058C105.289 57.1874 105.451 56.556 105.776 56.0116C106.1 55.4627 106.539 55.0344 107.093 54.7265C107.647 54.4186 108.273 54.2646 108.969 54.2646C109.662 54.2646 110.285 54.4186 110.839 54.7265C111.397 55.0344 111.839 55.4627 112.163 56.0116C112.488 56.556 112.65 57.1874 112.65 57.9058C112.65 58.6198 112.488 59.2512 112.163 59.8001C111.839 60.349 111.397 60.7773 110.839 61.0852C110.285 61.3931 109.662 61.5471 108.969 61.5471ZM108.969 60.6769C109.489 60.6769 109.952 60.5587 110.359 60.3222C110.765 60.0857 111.086 59.7599 111.319 59.3449C111.553 58.9255 111.67 58.4458 111.67 57.9058C111.67 57.3659 111.553 56.8884 111.319 56.4734C111.086 56.054 110.765 55.726 110.359 55.4895C109.952 55.253 109.489 55.1348 108.969 55.1348C108.45 55.1348 107.987 55.253 107.58 55.4895C107.173 55.726 106.853 56.054 106.619 56.4734C106.386 56.8884 106.269 57.3659 106.269 57.9058C106.269 58.4413 106.386 58.9188 106.619 59.3382C106.853 59.7577 107.173 60.0857 107.58 60.3222C107.987 60.5587 108.45 60.6769 108.969 60.6769Z" fill="white"/>
<path d="M118.111 61.5471C117.418 61.5471 116.793 61.3931 116.235 61.0852C115.681 60.7773 115.241 60.349 114.917 59.8001C114.592 59.2512 114.43 58.6198 114.43 57.9058C114.43 57.1874 114.592 56.556 114.917 56.0116C115.241 55.4627 115.681 55.0344 116.235 54.7265C116.789 54.4186 117.414 54.2646 118.111 54.2646C118.803 54.2646 119.426 54.4186 119.98 54.7265C120.538 55.0344 120.98 55.4627 121.304 56.0116C121.629 56.556 121.791 57.1874 121.791 57.9058C121.791 58.6198 121.629 59.2512 121.304 59.8001C120.98 60.349 120.538 60.7773 119.98 61.0852C119.426 61.3931 118.803 61.5471 118.111 61.5471ZM118.111 60.6769C118.63 60.6769 119.093 60.5587 119.5 60.3222C119.907 60.0857 120.227 59.7599 120.461 59.3449C120.694 58.9255 120.811 58.4458 120.811 57.9058C120.811 57.3659 120.694 56.8884 120.461 56.4734C120.227 56.054 119.907 55.726 119.5 55.4895C119.093 55.253 118.63 55.1348 118.111 55.1348C117.591 55.1348 117.128 55.253 116.721 55.4895C116.315 55.726 115.994 56.054 115.761 56.4734C115.527 56.8884 115.41 57.3659 115.41 57.9058C115.41 58.4413 115.527 58.9188 115.761 59.3382C115.994 59.7577 116.315 60.0857 116.721 60.3222C117.128 60.5587 117.591 60.6769 118.111 60.6769Z" fill="white"/>
<path d="M124.052 61.3329V49.8202H125V61.3329H124.052Z" fill="white"/>
<path d="M132 45C132 54.3888 141.402 62 153 62C164.598 62 174 54.3888 174 45L168.4 45C168.4 51.8851 161.505 57.4667 153 57.4667C144.495 57.4667 137.6 51.8852 137.6 45L132 45Z" fill="white"/>
<path d="M14.1868 2.09332C17.1752 2.09332 19.7695 2.59173 21.9698 3.58855C24.2029 4.58537 25.9105 6.01414 27.0928 7.87487C28.275 9.7356 28.8661 11.9452 28.8661 14.5037C28.8661 17.029 28.275 19.2386 27.0928 21.1326C25.9105 22.9933 24.2029 24.4221 21.9698 25.4189C19.7695 26.4157 17.1752 26.9141 14.1868 26.9141H6.40374V36.982H0V2.09332H14.1868ZM13.8912 21.4316C16.6826 21.4316 18.8007 20.8335 20.2457 19.6373C21.6906 18.4411 22.4131 16.7299 22.4131 14.5037C22.4131 12.2775 21.6906 10.5663 20.2457 9.3701C18.8007 8.17391 16.6826 7.57582 13.8912 7.57582H6.40374V21.4316H13.8912Z" fill="white"/>
<path d="M35.1509 0H41.3084V36.982H35.1509V0Z" fill="white"/>
<path d="M59.439 10.0679C63.314 10.0679 66.2696 11.0148 68.3057 12.9088C70.3746 14.7695 71.409 17.5938 71.409 21.3818V36.982H65.5964V33.7423C64.8411 34.9053 63.7574 35.8024 62.3453 36.4337C60.966 37.0318 59.2912 37.3309 57.3208 37.3309C55.3504 37.3309 53.6263 36.9986 52.1485 36.334C50.6708 35.6363 49.5214 34.6893 48.7004 33.4931C47.9122 32.2637 47.5182 30.8848 47.5182 29.3563C47.5182 26.9639 48.3884 25.0534 50.1289 23.6246C51.9022 22.1626 54.6772 21.4316 58.4538 21.4316H65.2516V21.0329C65.2516 19.1721 64.6933 17.7434 63.5768 16.7466C62.4931 15.7497 60.8675 15.2513 58.7001 15.2513C57.2223 15.2513 55.7609 15.4839 54.316 15.9491C52.9039 16.4143 51.7052 17.0622 50.72 17.8929L48.3063 13.3574C49.6856 12.2941 51.344 11.48 53.2815 10.9152C55.2191 10.3503 57.2715 10.0679 59.439 10.0679ZM58.6015 32.7953C60.145 32.7953 61.5079 32.4464 62.6901 31.7487C63.9052 31.0177 64.759 29.9876 65.2516 28.6585V25.5684H58.8971C55.3504 25.5684 53.5771 26.748 53.5771 29.1071C53.5771 30.2368 54.0204 31.134 54.9071 31.7985C55.7938 32.4631 57.0252 32.7953 58.6015 32.7953Z" fill="white"/>
<path d="M103.46 10.3669L91.1452 39.1251C89.9958 42.0159 88.6001 44.0428 86.9581 45.2057C85.3161 46.4019 83.3293 47 80.9977 47C79.6841 47 78.3869 46.784 77.1062 46.3521C75.8255 45.9201 74.7746 45.322 73.9536 44.5578L76.4166 39.9724C77.0077 40.5373 77.6973 40.9859 78.4855 41.3181C79.3065 41.6504 80.1275 41.8165 80.9484 41.8165C82.0322 41.8165 82.9188 41.5341 83.6085 40.9692C84.3309 40.4044 84.9877 39.4574 85.5788 38.1283L86.0222 37.0817L74.5447 10.3669H80.9484L89.2241 30.0541L97.5489 10.3669H103.46Z" fill="white"/>
<path d="M113.17 14.2545C114.944 11.4634 118.063 10.0679 122.53 10.0679V15.9989C122.004 15.8993 121.528 15.8494 121.101 15.8494C118.704 15.8494 116.832 16.5638 115.486 17.9926C114.139 19.3881 113.466 21.415 113.466 24.0732V36.982H107.308V10.3669H113.17V14.2545Z" fill="white"/>
<path d="M139.335 37.3309C136.675 37.3309 134.278 36.7494 132.143 35.5864C130.008 34.4235 128.334 32.812 127.118 30.7519C125.936 28.6585 125.345 26.2994 125.345 23.6744C125.345 21.0495 125.936 18.707 127.118 16.6469C128.334 14.5868 130.008 12.9753 132.143 11.8123C134.278 10.6493 136.675 10.0679 139.335 10.0679C142.028 10.0679 144.441 10.6493 146.576 11.8123C148.711 12.9753 150.369 14.5868 151.551 16.6469C152.766 18.707 153.374 21.0495 153.374 23.6744C153.374 26.2994 152.766 28.6585 151.551 30.7519C150.369 32.812 148.711 34.4235 146.576 35.5864C144.441 36.7494 142.028 37.3309 139.335 37.3309ZM139.335 31.9979C141.601 31.9979 143.473 31.2337 144.95 29.7052C146.428 28.1767 147.167 26.1665 147.167 23.6744C147.167 21.1824 146.428 19.1721 144.95 17.6437C143.473 16.1152 141.601 15.351 139.335 15.351C137.069 15.351 135.197 16.1152 133.719 17.6437C132.274 19.1721 131.552 21.1824 131.552 23.6744C131.552 26.1665 132.274 28.1767 133.719 29.7052C135.197 31.2337 137.069 31.9979 139.335 31.9979Z" fill="white"/>
<path d="M171.084 37.3309C168.424 37.3309 166.027 36.7494 163.892 35.5864C161.758 34.4235 160.083 32.812 158.868 30.7519C157.686 28.6585 157.094 26.2994 157.094 23.6744C157.094 21.0495 157.686 18.707 158.868 16.6469C160.083 14.5868 161.758 12.9753 163.892 11.8123C166.027 10.6493 168.424 10.0679 171.084 10.0679C173.777 10.0679 176.191 10.6493 178.325 11.8123C180.46 12.9753 182.118 14.5868 183.301 16.6469C184.516 18.707 185.123 21.0495 185.123 23.6744C185.123 26.2994 184.516 28.6585 183.301 30.7519C182.118 32.812 180.46 34.4235 178.325 35.5864C176.191 36.7494 173.777 37.3309 171.084 37.3309ZM171.084 31.9979C173.35 31.9979 175.222 31.2337 176.7 29.7052C178.178 28.1767 178.916 26.1665 178.916 23.6744C178.916 21.1824 178.178 19.1721 176.7 17.6437C175.222 16.1152 173.35 15.351 171.084 15.351C168.818 15.351 166.946 16.1152 165.469 17.6437C164.024 19.1721 163.301 21.1824 163.301 23.6744C163.301 26.1665 164.024 28.1767 165.469 29.7052C166.946 31.2337 168.818 31.9979 171.084 31.9979Z" fill="white"/>
<path d="M224.212 10.0679C227.529 10.0679 230.156 11.0481 232.094 13.0085C234.031 14.9357 235 17.8431 235 21.7306V36.982H228.843V22.5281C228.843 20.2022 228.334 18.4578 227.316 17.2948C226.297 16.0986 224.836 15.5005 222.931 15.5005C220.863 15.5005 219.204 16.1983 217.956 17.5938C216.708 18.9562 216.084 20.9166 216.084 23.4751V36.982H209.927V22.5281C209.927 20.2022 209.418 18.4578 208.4 17.2948C207.382 16.0986 205.92 15.5005 204.016 15.5005C201.914 15.5005 200.239 16.1817 198.991 17.544C197.776 18.9063 197.169 20.8834 197.169 23.4751V36.982H191.011V10.3669H196.873V13.7561C197.858 12.5599 199.09 11.6462 200.568 11.0148C202.045 10.3835 203.687 10.0679 205.494 10.0679C207.464 10.0679 209.204 10.45 210.715 11.2142C212.258 11.9452 213.474 13.0417 214.36 14.5037C215.444 13.1082 216.84 12.0283 218.547 11.2641C220.255 10.4666 222.143 10.0679 224.212 10.0679Z" fill="white"/>
</svg>
