<svg width="64" height="64" viewBox="0 0 64 64" fill="none" xmlns="http://www.w3.org/2000/svg">
<path d="M48.875 15C44.7395 15 41.375 11.6355 41.375 7.5C41.375 3.3645 44.7395 0 48.875 0C53.0105 0 56.375 3.3645 56.375 7.5C56.375 11.6355 53.0105 15 48.875 15ZM48.875 5C47.4965 5 46.375 6.1215 46.375 7.5C46.375 8.8785 47.4965 10 48.875 10C50.2535 10 51.375 8.8785 51.375 7.5C51.375 6.1215 50.2535 5 48.875 5ZM46.375 43.25H41.375V64H46.375V43.25ZM14.125 27.375C9.9895 27.375 6.625 24.0105 6.625 19.875C6.625 15.7395 9.9895 12.375 14.125 12.375C18.2605 12.375 21.625 15.7395 21.625 19.875C21.625 24.0105 18.2605 27.375 14.125 27.375ZM14.125 17.375C12.7465 17.375 11.625 18.4965 11.625 19.875C11.625 21.2535 12.7465 22.375 14.125 22.375C15.5035 22.375 16.625 21.2535 16.625 19.875C16.625 18.4965 15.5035 17.375 14.125 17.375ZM21.625 46.625H16.625V64H21.625V46.625ZM56.375 45.75H61.125V24.875C61.125 20.7395 57.7605 17.375 53.625 17.375H43.9235C39.9681 17.375 36.4921 20.0438 35.4704 23.8647L31.4263 38.9895L22.2736 31.6674C20.7281 30.4309 18.7869 29.75 16.8076 29.75H10.375C6.2395 29.75 2.875 33.1145 2.875 37.25V51.625H6.625V64H11.625V46.625H7.875V37.25C7.875 35.8715 8.9965 34.75 10.375 34.75H16.8076C17.6559 34.75 18.4879 35.0419 19.1502 35.5718L31.873 45.75H34.7944L40.3008 25.1562C40.7386 23.5186 42.2284 22.375 43.9235 22.375H53.625C55.0035 22.375 56.125 23.4965 56.125 24.875V40.75H51.375V64H56.375V45.75Z" fill="#2D53CB"/>
</svg>
