<svg width="64" height="64" viewBox="0 0 64 64" fill="none" xmlns="http://www.w3.org/2000/svg">
<path d="M30.1875 12.375H54.0625V17.375H30.1875V12.375Z" fill="white"/>
<path fill-rule="evenodd" clip-rule="evenodd" d="M56.4375 44H27.5625C26.184 44 25.0625 45.1215 25.0625 46.5C25.0625 47.8785 26.184 49 27.5625 49H56.4375C59.2492 49 61.8469 48.0666 63.9375 46.4938V46.5C63.9375 50.6355 60.573 54 56.4375 54H7.5625C6.184 54 5.0625 55.1215 5.0625 56.5C5.0625 57.8785 6.184 59 7.5625 59H36.4375C39.2492 59 41.8469 58.0666 43.9375 56.4938V56.5C43.9375 60.6355 40.573 64 36.4375 64H7.5625C3.427 64 0.0625 60.6355 0.0625 56.5V17.5C0.0625 13.3645 3.427 10 7.5625 10H20.0625V7.5C20.0625 3.3645 23.427 0 27.5625 0H56.4375C60.573 0 63.9375 3.3645 63.9375 7.5V36.5C63.9375 40.6355 60.573 44 56.4375 44ZM5.0625 49.4284C5.84475 49.151 6.68638 49 7.5625 49H20.4909C20.2135 48.2178 20.0625 47.3761 20.0625 46.5V27.375H10.0625V22.375H20.0625V15H7.5625C6.184 15 5.0625 16.1215 5.0625 17.5V49.4284ZM27.5625 5C26.184 5 25.0625 6.1215 25.0625 7.5V39.4284C25.8447 39.151 26.6864 39 27.5625 39H56.4375C57.816 39 58.9375 37.8785 58.9375 36.5V7.5C58.9375 6.1215 57.816 5 56.4375 5H27.5625Z" fill="white"/>
</svg>
