<svg width="64" height="64" viewBox="0 0 64 64" fill="none" xmlns="http://www.w3.org/2000/svg">
<path d="M54.6148 41.3495C51.1314 37.8662 46.9852 35.2875 42.4614 33.7265C47.3066 30.3895 50.4897 24.8048 50.4897 18.4896C50.4897 8.2945 42.1952 0 32.0001 0C21.8049 0 13.5104 8.2945 13.5104 18.4896C13.5104 24.8046 16.6936 30.3894 21.5387 33.7265C17.0149 35.2874 12.8688 37.866 9.38532 41.3495C3.34457 47.3902 0.0178223 55.4216 0.0178223 63.9644H5.01507C5.01507 50.1065 15.5158 38.657 28.9779 37.1496L24.2372 56.2363L32.0001 64L39.7622 56.2361L35.0219 37.1495C48.4841 38.6569 58.9848 50.1065 58.9848 63.9644H63.9821C63.9821 55.4215 60.6553 47.3901 54.6148 41.3495ZM31.9998 56.9324L29.7678 54.7L31.9998 45.7135L34.2316 54.7L31.9998 56.9324ZM31.9999 31.9823C24.5601 31.9823 18.5074 25.9295 18.5074 18.4899C18.5074 11.0501 24.5601 4.99738 31.9999 4.99738C39.4398 4.99738 45.4924 11.05 45.4924 18.4897C45.4924 25.9295 39.4398 31.9823 31.9999 31.9823Z" fill="white"/>
</svg>
