<svg width="64" height="64" viewBox="0 0 64 64" fill="none" xmlns="http://www.w3.org/2000/svg">
<path fill-rule="evenodd" clip-rule="evenodd" d="M15.6564 24.3899C19.4653 24.5538 23.021 26.135 25.7033 28.8664C28.474 31.6879 30 35.4199 30 39.375C30 47.646 23.271 54.375 15 54.375C6.729 54.375 0 47.646 0 39.375C0 22.4815 6.835 11.2754 7.12587 10.8066L7.85925 9.625H18.8072L17.9051 12.807C17.0235 15.9169 15.625 21.536 15.625 23.375C15.625 23.8239 15.6384 24.1519 15.6564 24.3899ZM5 39.375C5 44.889 9.486 49.375 15 49.375C20.514 49.375 25 44.889 25 39.375C25 33.9671 20.603 29.4824 15.1984 29.3776L15.0892 29.3749C12.8965 29.3629 11.8275 28.2367 11.3164 27.2913C10.7425 26.2297 10.625 24.958 10.625 23.375C10.625 21.3801 11.5243 17.448 12.2426 14.625H10.7265C9.1045 17.7708 5 26.96 5 39.375Z" fill="white"/>
<path fill-rule="evenodd" clip-rule="evenodd" d="M49.6564 24.3899C53.4653 24.5538 57.021 26.135 59.7033 28.8664C62.474 31.6879 64 35.4199 64 39.375C64 47.646 57.271 54.375 49 54.375C40.729 54.375 34 47.646 34 39.375C34 22.4815 40.835 11.2754 41.1259 10.8066L41.8592 9.625H52.8073L51.9051 12.807C51.0235 15.9169 49.625 21.536 49.625 23.375C49.625 23.8239 49.6384 24.1519 49.6564 24.3899ZM39 39.375C39 44.889 43.486 49.375 49 49.375C54.514 49.375 59 44.889 59 39.375C59 33.9671 54.603 29.4824 49.1984 29.3776L49.0892 29.3749C46.8965 29.3629 45.8275 28.2367 45.3164 27.2913C44.7425 26.2297 44.625 24.958 44.625 23.375C44.625 21.3801 45.5243 17.448 46.2426 14.625H44.7265C43.1045 17.7708 39 26.96 39 39.375Z" fill="white"/>
</svg>
